<?xml version="1.0" encoding="UTF-8"?>
<svg width="200px" height="200px" viewBox="0 0 200 200" xmlns="http://www.w3.org/2000/svg">
  <g fill="rgba(74, 144, 226, 0.15)" stroke="none">
    <path d="M20,20 C40,0 60,0 80,20 C100,40 120,40 140,20 C160,0 180,0 200,20 L200,0 L0,0 L0,20 C0,0 20,0 20,20 Z"/>
    <circle cx="50" cy="40" r="10"/>
    <circle cx="150" cy="40" r="10"/>
    <path d="M70,50 L130,50 L100,80 Z"/>
    <path d="M40,70 L20,90 L40,110 L60,90 Z"/>
    <path d="M160,70 L140,90 L160,110 L180,90 Z"/>
  </g>
</svg>
